<svg xmlns="http://www.w3.org/2000/svg" width="68.402" height="52.868" viewBox="0 0 68.402 52.868">
  <g id="consumption-icon" transform="translate(-24.75 -11.743)">
    <path id="Path_28775" data-name="Path 28775" d="M72.93,28.536H64.237v13.4a1.222,1.222,0,0,1-2.084.863L58.307,38.95l-3.843,3.843a1.221,1.221,0,0,1-2.092-.855v-13.4H43.679V57.787H72.93ZM37.967,64.5,24.75,44.9l16.488.121V59.013a1.221,1.221,0,0,0,1.221,1.221H74.151a1.221,1.221,0,0,0,1.221-1.221V45.018H91.047L79.728,64.61ZM61.8,28.541V39l-2.63-2.63h0a1.209,1.209,0,0,0-.863-.358,1.223,1.223,0,0,0-.863.358L54.81,39V28.536Zm-28.573-16.8L26.2,23.916h3.218l3.806,16.021L37.03,23.916h3.218L33.22,11.743Zm52.9,28.2,3.514-6.087,3.51-6.087H89.934l-3.81-16.025-3.81,16.025H79.1l3.514,6.087Z" transform="translate(0 0)" fill="#fff" fill-rule="evenodd"/>
  </g>
</svg>
