<svg xmlns="http://www.w3.org/2000/svg" width="243.333" height="63.574" viewBox="0 0 243.333 63.574">
  <g id="stimul8-logo" transform="translate(-304.819 -480.867)">
    <g id="Group_16006" data-name="Group 16006" transform="translate(304.819 480.867)">
      <g id="Group_15999" data-name="Group 15999" transform="translate(9.883 46.001)">
        <path id="Path_28231" data-name="Path 28231" d="M358.4,550.442c-1.1-1.3-2.152-2.551-3.2-3.8a6.44,6.44,0,0,1-.521-.664c-.252-.4-.123-.671.344-.679a13.352,13.352,0,0,1,1.476.09q4.107.382,8.214.775c.822.078,1.2.583,1.107,1.476-.135,1.3-.279,2.607-.42,3.911-.183,1.7-.357,3.394-.561,5.088a2.413,2.413,0,0,1-.321.682,2.552,2.552,0,0,1-.645-.4c-1.1-1.27-2.171-2.561-3.253-3.843-.08-.1-.168-.184-.249-.273-.835.453-1.64.916-2.469,1.333a30.651,30.651,0,0,1-36.951-7.468,29.418,29.418,0,0,1-3.242-4.589,1.49,1.49,0,0,1,1.055-2.267,1.526,1.526,0,0,1,1.574.834,26.947,26.947,0,0,0,3.938,5.224,27.694,27.694,0,0,0,33.7,4.829C358.1,550.624,358.228,550.542,358.4,550.442Z" transform="translate(-317.479 -539.792)" fill="#4d3896"/>
      </g>
      <g id="Group_16000" data-name="Group 16000" transform="translate(43.049)">
        <path id="Path_28232" data-name="Path 28232" d="M366.972,489.666c-.413,1.137-.816,2.247-1.218,3.358-.2.557-.376,1.125-.614,1.665a4.252,4.252,0,0,1-.539.751,3.546,3.546,0,0,1-.635-.726c-.742-1.551-1.447-3.12-2.162-4.683q-.837-1.826-1.671-3.653a1.125,1.125,0,0,1,.622-1.694q4.226-1.892,8.467-3.749c.18-.079.532-.1.611,0a.8.8,0,0,1,.049.651c-.557,1.6-1.142,3.184-1.717,4.774-.048.131-.091.265-.146.428.393.229.785.446,1.166.679A30.083,30.083,0,0,1,383.7,508.611a29.72,29.72,0,0,1-3.446,20.144,2.7,2.7,0,0,1-.894.964,1.381,1.381,0,0,1-1.7-.332,1.533,1.533,0,0,1-.183-1.806c.59-1.184,1.227-2.353,1.723-3.577a27.645,27.645,0,0,0-5.724-29.343,27.977,27.977,0,0,0-6.107-4.785C367.254,489.807,367.128,489.748,366.972,489.666Z" transform="translate(-359.964 -480.867)" fill="#4d3896"/>
      </g>
      <g id="Group_16001" data-name="Group 16001" transform="translate(0 2.305)">
        <path id="Path_28233" data-name="Path 28233" d="M310.762,515.415c.045-1.184.041-2.315.14-3.436a30.13,30.13,0,0,1,10.433-20.644,29.761,29.761,0,0,1,15.816-7.222c1.378-.2,2.781-.232,4.174-.293a1.451,1.451,0,0,1,1.6,1.479,1.483,1.483,0,0,1-1.585,1.5,27.183,27.183,0,0,0-18.4,7.118,26.905,26.905,0,0,0-8.809,16.3c-.234,1.511-.292,3.048-.439,4.667.953-.169,1.766-.311,2.578-.455l2.914-.522a.522.522,0,0,1,.167-.023c.212.039.545.029.6.147a.782.782,0,0,1-.094.65c-.553.834-1.145,1.642-1.724,2.459q-1.847,2.605-3.7,5.211a1.2,1.2,0,0,1-1.966.3q-3.638-2.657-7.28-5.312c-.057-.041-.135-.073-.165-.129-.087-.165-.233-.352-.207-.506.02-.12.249-.262.406-.294.773-.162,1.552-.29,2.329-.43Z" transform="translate(-304.819 -483.82)" fill="#4d3896"/>
      </g>
      <g id="Group_16238" data-name="Group 16238">
        <g id="Group_16002" data-name="Group 16002" transform="translate(38.079 27.317)">
          <path id="Path_28234" data-name="Path 28234" d="M367.15,515.859v2.829q0,6.113.005,12.225a.559.559,0,0,1-.311.57q-6.487,3.728-12.965,7.476c-.069.04-.142.073-.274.14v-.463q0-7.213-.007-14.426a.6.6,0,0,1,.34-.6q6.417-3.767,12.825-7.549C366.869,516,366.98,515.949,367.15,515.859Z" transform="translate(-353.598 -515.859)" fill="#50c1c9"/>
        </g>
        <g id="Group_16003" data-name="Group 16003" transform="translate(22.562 27.311)">
          <path id="Path_28235" data-name="Path 28235" d="M333.747,515.851l2.972,1.753q5.1,3,10.2,6.006a.6.6,0,0,1,.358.59q-.016,7.255-.009,14.509c0,.109-.014.216-.024.367-.12-.057-.208-.091-.287-.137q-6.444-3.72-12.89-7.437a.6.6,0,0,1-.347-.594q.011-7.317,0-14.636C333.725,516.162,333.736,516.05,333.747,515.851Z" transform="translate(-333.72 -515.851)" fill="#50c1c9"/>
        </g>
        <g id="Group_16004" data-name="Group 16004" transform="translate(31.224 21.567)">
          <path id="Path_28236" data-name="Path 28236" d="M344.817,517.026c1.28-.841,2.5-1.648,3.727-2.451q4.582-3,9.17-5.988a.569.569,0,0,1,.475-.066c2.137,1.2,4.262,2.425,6.39,3.645.022.013.035.04.08.094l-1.378.816q-6.1,3.6-12.2,7.2a.668.668,0,0,1-.793,0c-1.691-1.017-3.4-2.011-5.095-3.013C345.086,517.195,344.979,517.126,344.817,517.026Z" transform="translate(-344.817 -508.493)" fill="#50c1c9"/>
        </g>
        <g id="Group_16005" data-name="Group 16005" transform="translate(23.108 17.372)">
          <path id="Path_28237" data-name="Path 28237" d="M334.42,511.047c1.858-1.066,3.688-2.117,5.519-3.166,2.7-1.547,5.408-3.087,8.1-4.645a.62.62,0,0,1,.722,0c1.533.895,3.078,1.77,4.618,2.652.109.062.214.13.371.225-.365.245-.694.471-1.027.69q-5.887,3.86-11.769,7.724a.54.54,0,0,1-.673.016c-1.862-1.114-3.734-2.211-5.6-3.314C334.6,511.179,334.525,511.119,334.42,511.047Z" transform="translate(-334.42 -503.12)" fill="#50c1c9"/>
        </g>
      </g>
    </g>
    <g id="Group_16007" data-name="Group 16007" transform="translate(380.784 500.825)">
      <path id="Path_28238" data-name="Path 28238" d="M407.938,506.433v23.851h-5.81V506.433Z" transform="translate(-402.128 -506.433)" fill="#50c1c9"/>
      <path id="Path_28239" data-name="Path 28239" d="M431.837,514.6a8.415,8.415,0,0,1,1.988,5.928V531.6h-5.776V521.307a4.164,4.164,0,0,0-.985-2.956,3.862,3.862,0,0,0-5.3,0,4.164,4.164,0,0,0-.985,2.956V531.6h-5.81V512.643h5.81v2.514a6.132,6.132,0,0,1,2.379-1.988,7.556,7.556,0,0,1,3.364-.731A6.88,6.88,0,0,1,431.837,514.6Z" transform="translate(-404.944 -507.75)" fill="#50c1c9"/>
      <path id="Path_28240" data-name="Path 28240" d="M452.325,526.222l4.111-13.522h6.184l-6.728,18.959h-7.169L442,512.7h6.217Z" transform="translate(-410.873 -507.808)" fill="#50c1c9"/>
      <path id="Path_28241" data-name="Path 28241" d="M488.993,523.5H475.844a3.95,3.95,0,0,0,1.138,2.7,3.474,3.474,0,0,0,2.464.934,3.054,3.054,0,0,0,3.024-1.835h6.184a8.488,8.488,0,0,1-1.716,3.363A8.583,8.583,0,0,1,483.829,531a9.965,9.965,0,0,1-4.179.849,10.164,10.164,0,0,1-4.961-1.189,8.451,8.451,0,0,1-3.4-3.4,10.487,10.487,0,0,1-1.223-5.164,10.607,10.607,0,0,1,1.206-5.165,8.353,8.353,0,0,1,3.381-3.4,11.011,11.011,0,0,1,9.887-.034,8.292,8.292,0,0,1,3.347,3.3,10,10,0,0,1,1.206,4.994A14.826,14.826,0,0,1,488.993,523.5Zm-5.844-3.227a2.988,2.988,0,0,0-1.02-2.379,3.748,3.748,0,0,0-2.548-.884,3.683,3.683,0,0,0-2.463.849,3.77,3.77,0,0,0-1.24,2.413Z" transform="translate(-417.03 -507.731)" fill="#50c1c9"/>
      <path id="Path_28242" data-name="Path 28242" d="M515.228,514.6a8.416,8.416,0,0,1,1.988,5.928V531.6h-5.776V521.307a4.167,4.167,0,0,0-.985-2.956,3.862,3.862,0,0,0-5.3,0,4.16,4.16,0,0,0-.985,2.956V531.6h-5.81V512.643h5.81v2.514a6.13,6.13,0,0,1,2.378-1.988,7.561,7.561,0,0,1,3.364-.731A6.88,6.88,0,0,1,515.228,514.6Z" transform="translate(-423.236 -507.75)" fill="#50c1c9"/>
      <path id="Path_28243" data-name="Path 28243" d="M537.869,525.435v4.926h-2.956a7.236,7.236,0,0,1-4.927-1.546q-1.767-1.546-1.767-5.045v-7.543h-2.311V511.4h2.311v-4.621h5.81V511.4h3.8v4.825h-3.8v7.611a1.592,1.592,0,0,0,.407,1.223,1.989,1.989,0,0,0,1.358.374Z" transform="translate(-429.279 -506.509)" fill="#50c1c9"/>
      <path id="Path_28244" data-name="Path 28244" d="M548.658,530.665a8.7,8.7,0,0,1-3.5-3.4,11,11,0,0,1,.017-10.312,8.764,8.764,0,0,1,3.533-3.415,11.229,11.229,0,0,1,10.057,0,8.775,8.775,0,0,1,3.534,3.415,10.843,10.843,0,0,1-.017,10.3,8.845,8.845,0,0,1-3.568,3.414,10.661,10.661,0,0,1-5.045,1.189A10.456,10.456,0,0,1,548.658,530.665Zm7.849-5.062a4.86,4.86,0,0,0,1.173-3.5,4.954,4.954,0,0,0-1.138-3.5,3.861,3.861,0,0,0-5.623-.017A4.987,4.987,0,0,0,549.8,522.1a5.048,5.048,0,0,0,1.1,3.5,3.572,3.572,0,0,0,2.77,1.223A3.784,3.784,0,0,0,556.506,525.6Z" transform="translate(-433.222 -507.731)" fill="#50c1c9"/>
      <path id="Path_28245" data-name="Path 28245" d="M581.446,513.339a6.577,6.577,0,0,1,3.4-.9v6.149h-1.6a4.892,4.892,0,0,0-3.262.935A4.147,4.147,0,0,0,578.9,522.8v8.8h-5.81V512.643h5.81v3.16A7.676,7.676,0,0,1,581.446,513.339Z" transform="translate(-439.628 -507.75)" fill="#50c1c9"/>
      <path id="Path_28246" data-name="Path 28246" d="M610.481,512.7l-11.892,27.963h-6.251l4.349-9.65L588.974,512.7h6.49l4.383,11.858L604.2,512.7Z" transform="translate(-443.112 -507.808)" fill="#50c1c9"/>
    </g>
  </g>
</svg>
