<svg id="lock-icon" xmlns="http://www.w3.org/2000/svg" width="13.168" height="14.45" viewBox="0 0 13.168 14.45">
  <path id="Path_27446" data-name="Path 27446" d="M20.535,12.008v-1.9a3.385,3.385,0,1,0-6.77,0v1.9h-.559a.861.861,0,0,0-.858.859V17.7h9.6V12.867a.861.861,0,0,0-.858-.859Zm-5.321,0v-1.9a1.936,1.936,0,0,1,3.871,0v1.9Zm1.1,4.852.467-2.111a.721.721,0,1,1,.734,0l.467,2.111Zm-4.921,4.317H22.9a.8.8,0,0,0,.829-.768V19.1a.8.8,0,0,0-.829-.768H11.395a.8.8,0,0,0-.829.768v1.311a.8.8,0,0,0,.829.769Zm10.853-1.424a.463.463,0,1,1-.463-.464A.464.464,0,0,1,22.248,19.752Zm-2.318,0a.463.463,0,1,1-.463-.464A.464.464,0,0,1,19.93,19.752Zm-2.317,0a.463.463,0,1,1-.463-.464A.464.464,0,0,1,17.613,19.752Zm-2.317,0a.463.463,0,1,1-.463-.464A.464.464,0,0,1,15.3,19.752Zm-2.317,0a.463.463,0,1,1-.463-.464A.464.464,0,0,1,12.979,19.752Z" transform="translate(-10.566 -6.727)" fill="#101040" fill-rule="evenodd"/>
</svg>
