<svg xmlns="http://www.w3.org/2000/svg" xmlns:xlink="http://www.w3.org/1999/xlink" width="303" height="584" viewBox="0 0 303 584"><defs><clipPath id="b"><rect width="303" height="584"/></clipPath></defs><g id="a" clip-path="url(#b)"><g transform="translate(2808.308 93.358) rotate(90)" opacity="0.08"><g transform="translate(363 2516.849)"><g transform="translate(42.679 2.53)"><path d="M541.241,225.261l145.7-.528-.006-1.529-144.789.525-9.009-16.5H487.671v1.529h44.559Z" transform="translate(-487.671 -207.227)" fill="#4608ad"/></g><g transform="translate(125.072 10.254)"><rect width="1.529" height="115.97" transform="matrix(-0.005, -1, 1, -0.005, 0.007, 2.056)" fill="#4608ad"/></g><g transform="translate(28.005 22.583)"><path d="M617.339,236.025H665.07V234.5H618.182l-8.931-14.157H556.708v1.529h51.7Z" transform="translate(-556.708 -220.339)" fill="#4608ad"/></g><g transform="translate(5.255 10.781)"><path d="M593.8,232.1h120.66v-1.529h-119.8l-10.928-17.944H506.375v1.529h76.5Z" transform="translate(-506.375 -212.622)" fill="#4608ad"/></g><g transform="translate(0 8.251)"><path d="M644.861,217.56a3.3,3.3,0,1,0-3.3-3.3A3.3,3.3,0,0,0,644.861,217.56Zm0-5.062a1.766,1.766,0,1,1-1.766,1.765A1.769,1.769,0,0,1,644.861,212.5Z" transform="translate(-641.565 -210.968)" fill="#4608ad"/></g><g transform="translate(22.362 20.051)"><path d="M630.238,225.276a3.3,3.3,0,1,0-3.294-3.3A3.3,3.3,0,0,0,630.238,225.276Zm0-5.062a1.766,1.766,0,1,1-1.765,1.766A1.768,1.768,0,0,1,630.238,220.213Z" transform="translate(-626.944 -218.684)" fill="#4608ad"/></g><g transform="translate(36.851)"><path d="M620.764,212.163a3.295,3.295,0,1,0-3.3-3.3A3.3,3.3,0,0,0,620.764,212.163Zm0-5.061A1.766,1.766,0,1,1,619,208.867,1.769,1.769,0,0,1,620.764,207.1Z" transform="translate(-617.468 -205.573)" fill="#4608ad"/></g><g transform="translate(119.25 7.723)"><path d="M566.887,217.214a3.3,3.3,0,1,0-3.3-3.3A3.3,3.3,0,0,0,566.887,217.214Zm0-5.062a1.766,1.766,0,1,1-1.766,1.766A1.768,1.768,0,0,1,566.887,212.152Z" transform="translate(-563.591 -210.623)" fill="#4608ad"/></g></g><g transform="translate(334 2555.118)"><g transform="translate(42.679 2.53)"><path d="M541.241,225.261l145.7-.528-.006-1.529-144.789.525-9.009-16.5H487.671v1.529h44.559Z" transform="translate(-487.671 -207.227)" fill="#4608ad"/></g><g transform="translate(28.005 22.583)"><path d="M617.339,236.025H665.07V234.5H618.182l-8.931-14.157H556.708v1.529h51.7Z" transform="translate(-556.708 -220.339)" fill="#4608ad"/></g><g transform="translate(5.255 10.781)"><path d="M593.8,232.1h120.66v-1.529h-119.8l-10.928-17.944H506.375v1.529h76.5Z" transform="translate(-506.375 -212.622)" fill="#4608ad"/></g><g transform="translate(0 8.251)"><path d="M644.861,217.56a3.3,3.3,0,1,0-3.3-3.3A3.3,3.3,0,0,0,644.861,217.56Zm0-5.062a1.766,1.766,0,1,1-1.766,1.765A1.769,1.769,0,0,1,644.861,212.5Z" transform="translate(-641.565 -210.968)" fill="#4608ad"/></g><g transform="translate(22.362 20.051)"><path d="M630.238,225.276a3.3,3.3,0,1,0-3.294-3.3A3.3,3.3,0,0,0,630.238,225.276Zm0-5.062a1.766,1.766,0,1,1-1.765,1.766A1.768,1.768,0,0,1,630.238,220.213Z" transform="translate(-626.944 -218.684)" fill="#4608ad"/></g><g transform="translate(36.851)"><path d="M620.764,212.163a3.295,3.295,0,1,0-3.3-3.3A3.3,3.3,0,0,0,620.764,212.163Zm0-5.061A1.766,1.766,0,1,1,619,208.867,1.769,1.769,0,0,1,620.764,207.1Z" transform="translate(-617.468 -205.573)" fill="#4608ad"/></g><g transform="translate(125.072 10.254)"><rect width="1.529" height="115.97" transform="matrix(-0.005, -1, 1, -0.005, 0.007, 2.056)" fill="#4608ad"/></g><g transform="translate(119.25 7.723)"><path d="M566.887,217.214a3.3,3.3,0,1,0-3.3-3.3A3.3,3.3,0,0,0,566.887,217.214Zm0-5.062a1.766,1.766,0,1,1-1.766,1.766A1.768,1.768,0,0,1,566.887,212.152Z" transform="translate(-563.591 -210.623)" fill="#4608ad"/></g><g transform="translate(21 26.25)"><g transform="translate(125.072 10.254)"><rect width="1.529" height="115.97" transform="matrix(-0.005, -1, 1, -0.005, 0.007, 2.056)" fill="#4608ad"/></g><g transform="translate(119.25 7.723)"><path d="M566.887,217.214a3.3,3.3,0,1,0-3.3-3.3A3.3,3.3,0,0,0,566.887,217.214Zm0-5.062a1.766,1.766,0,1,1-1.766,1.766A1.768,1.768,0,0,1,566.887,212.152Z" transform="translate(-563.591 -210.623)" fill="#4608ad"/></g></g><g transform="translate(51 -10.31)"><g transform="translate(125.072 10.254)"><path d="M0,0H1.529l.111,91.424H.111Z" transform="matrix(-0.005, -1, 1, -0.005, 0.005, 2.056)" fill="#4608ad"/></g><g transform="translate(119.25 7.723)"><path d="M566.887,217.214a3.3,3.3,0,1,0-3.3-3.3A3.3,3.3,0,0,0,566.887,217.214Zm0-5.062a1.766,1.766,0,1,1-1.766,1.766A1.768,1.768,0,0,1,566.887,212.152Z" transform="translate(-563.591 -210.623)" fill="#4608ad"/></g></g></g><g transform="translate(195 2576.548)"><g transform="translate(42.679 17.705)"><path d="M541.241,207.227l145.7.528-.006,1.529-144.789-.525-9.009,16.5H487.671v-1.529h44.559Z" transform="translate(-487.671 -207.227)" fill="#4608ad"/></g><g transform="translate(125.072 25.959)"><rect width="1.529" height="115.97" transform="matrix(-0.005, 1, -1, -0.005, 115.976, 0.527)" fill="#4608ad"/></g><g transform="translate(28.005 0)"><path d="M617.339,220.339H665.07v1.529H618.182l-8.931,14.157H556.708V234.5h51.7Z" transform="translate(-556.708 -220.339)" fill="#4608ad"/></g><g transform="translate(5.255 8.014)"><path d="M593.8,212.622h120.66v1.529h-119.8L583.737,232.1H506.375v-1.529h76.5Z" transform="translate(-506.375 -212.622)" fill="#4608ad"/></g><g transform="translate(0 23.427)"><path d="M644.861,210.968a3.3,3.3,0,1,1-3.3,3.3A3.3,3.3,0,0,1,644.861,210.968Zm0,5.062a1.766,1.766,0,1,0-1.766-1.765A1.769,1.769,0,0,0,644.861,216.03Z" transform="translate(-641.565 -210.968)" fill="#4608ad"/></g><g transform="translate(22.362 11.626)"><path d="M630.238,218.684a3.3,3.3,0,1,1-3.294,3.3A3.3,3.3,0,0,1,630.238,218.684Zm0,5.062a1.766,1.766,0,1,0-1.765-1.766A1.768,1.768,0,0,0,630.238,223.746Z" transform="translate(-626.944 -218.684)" fill="#4608ad"/></g><g transform="translate(36.851 31.679)"><path d="M620.764,205.573a3.295,3.295,0,1,1-3.3,3.3A3.3,3.3,0,0,1,620.764,205.573Zm0,5.061A1.766,1.766,0,1,0,619,208.869,1.769,1.769,0,0,0,620.764,210.634Z" transform="translate(-617.468 -205.573)" fill="#4608ad"/></g><g transform="translate(119.25 23.954)"><path d="M566.887,210.623a3.3,3.3,0,1,1-3.3,3.3A3.3,3.3,0,0,1,566.887,210.623Zm0,5.062a1.766,1.766,0,1,0-1.766-1.766A1.768,1.768,0,0,0,566.887,215.685Z" transform="translate(-563.591 -210.623)" fill="#4608ad"/></g></g><g transform="translate(220 2529.548)"><g transform="translate(42.679 17.705)"><path d="M541.241,207.227l115.7.528-.006,1.529-114.789-.525-9.009,16.5H487.671v-1.529h44.559Z" transform="translate(-487.671 -207.227)" fill="#4608ad"/></g><g transform="translate(28.005 0)"><path d="M617.339,220.339H665.07v1.529H618.182l-8.931,14.157H556.708V234.5h51.7Z" transform="translate(-556.708 -220.339)" fill="#4608ad"/></g><g transform="translate(5.255 8.014)"><path d="M593.8,212.622h67.66v1.529h-66.8L583.737,232.1H506.375v-1.529h76.5Z" transform="translate(-506.375 -212.622)" fill="#4608ad"/></g><g transform="translate(0 23.427)"><path d="M644.861,210.968a3.3,3.3,0,1,1-3.3,3.3A3.3,3.3,0,0,1,644.861,210.968Zm0,5.062a1.766,1.766,0,1,0-1.766-1.765A1.769,1.769,0,0,0,644.861,216.03Z" transform="translate(-641.565 -210.968)" fill="#4608ad"/></g><g transform="translate(22.362 11.626)"><path d="M630.238,218.684a3.3,3.3,0,1,1-3.294,3.3A3.3,3.3,0,0,1,630.238,218.684Zm0,5.062a1.766,1.766,0,1,0-1.765-1.766A1.768,1.768,0,0,0,630.238,223.746Z" transform="translate(-626.944 -218.684)" fill="#4608ad"/></g><g transform="translate(36.851 31.679)"><path d="M620.764,205.573a3.295,3.295,0,1,1-3.3,3.3A3.3,3.3,0,0,1,620.764,205.573Zm0,5.061A1.766,1.766,0,1,0,619,208.869,1.769,1.769,0,0,0,620.764,210.634Z" transform="translate(-617.468 -205.573)" fill="#4608ad"/></g></g><g transform="translate(306 2646.548)"><g transform="translate(42.679 17.705)"><path d="M541.241,207.227l145.7.528-.006,1.529-144.789-.525-9.009,16.5H487.671v-1.529h44.559Z" transform="translate(-487.671 -207.227)" fill="#4608ad"/></g><g transform="translate(125.072 25.959)"><rect width="1.529" height="115.97" transform="matrix(-0.005, 1, -1, -0.005, 115.976, 0.527)" fill="#4608ad"/></g><g transform="translate(28.005 0)"><path d="M617.339,220.339H665.07v1.529H618.182l-8.931,14.157H556.708V234.5h51.7Z" transform="translate(-556.708 -220.339)" fill="#4608ad"/></g><g transform="translate(5.255 8.014)"><path d="M593.8,212.622h120.66v1.529h-119.8L583.737,232.1H506.375v-1.529h76.5Z" transform="translate(-506.375 -212.622)" fill="#4608ad"/></g><g transform="translate(0 23.427)"><path d="M644.861,210.968a3.3,3.3,0,1,1-3.3,3.3A3.3,3.3,0,0,1,644.861,210.968Zm0,5.062a1.766,1.766,0,1,0-1.766-1.765A1.769,1.769,0,0,0,644.861,216.03Z" transform="translate(-641.565 -210.968)" fill="#4608ad"/></g><g transform="translate(22.362 11.626)"><path d="M630.238,218.684a3.3,3.3,0,1,1-3.294,3.3A3.3,3.3,0,0,1,630.238,218.684Zm0,5.062a1.766,1.766,0,1,0-1.765-1.766A1.768,1.768,0,0,0,630.238,223.746Z" transform="translate(-626.944 -218.684)" fill="#4608ad"/></g><g transform="translate(36.851 31.679)"><path d="M620.764,205.573a3.295,3.295,0,1,1-3.3,3.3A3.3,3.3,0,0,1,620.764,205.573Zm0,5.061A1.766,1.766,0,1,0,619,208.869,1.769,1.769,0,0,0,620.764,210.634Z" transform="translate(-617.468 -205.573)" fill="#4608ad"/></g><g transform="translate(119.25 23.954)"><path d="M566.887,210.623a3.3,3.3,0,1,1-3.3,3.3A3.3,3.3,0,0,1,566.887,210.623Zm0,5.062a1.766,1.766,0,1,0-1.766-1.766A1.768,1.768,0,0,0,566.887,215.685Z" transform="translate(-563.591 -210.623)" fill="#4608ad"/></g></g><g transform="translate(363 2601.548)"><g transform="translate(42.679 17.705)"><path d="M541.241,207.227l145.7.528-.006,1.529-144.789-.525-9.009,16.5H487.671v-1.529h44.559Z" transform="translate(-487.671 -207.227)" fill="#4608ad"/></g><g transform="translate(125.072 25.959)"><rect width="1.529" height="115.97" transform="matrix(-0.005, 1, -1, -0.005, 115.976, 0.527)" fill="#4608ad"/></g><g transform="translate(28.005 0)"><path d="M617.339,220.339H665.07v1.529H618.182l-8.931,14.157H556.708V234.5h51.7Z" transform="translate(-556.708 -220.339)" fill="#4608ad"/></g><g transform="translate(5.255 8.014)"><path d="M593.8,212.622h120.66v1.529h-119.8L583.737,232.1H506.375v-1.529h76.5Z" transform="translate(-506.375 -212.622)" fill="#4608ad"/></g><g transform="translate(0 23.427)"><path d="M644.861,210.968a3.3,3.3,0,1,1-3.3,3.3A3.3,3.3,0,0,1,644.861,210.968Zm0,5.062a1.766,1.766,0,1,0-1.766-1.765A1.769,1.769,0,0,0,644.861,216.03Z" transform="translate(-641.565 -210.968)" fill="#4608ad"/></g><g transform="translate(22.362 11.626)"><path d="M630.238,218.684a3.3,3.3,0,1,1-3.294,3.3A3.3,3.3,0,0,1,630.238,218.684Zm0,5.062a1.766,1.766,0,1,0-1.765-1.766A1.768,1.768,0,0,0,630.238,223.746Z" transform="translate(-626.944 -218.684)" fill="#4608ad"/></g><g transform="translate(36.851 31.679)"><path d="M620.764,205.573a3.295,3.295,0,1,1-3.3,3.3A3.3,3.3,0,0,1,620.764,205.573Zm0,5.061A1.766,1.766,0,1,0,619,208.869,1.769,1.769,0,0,0,620.764,210.634Z" transform="translate(-617.468 -205.573)" fill="#4608ad"/></g><g transform="translate(119.25 23.954)"><path d="M566.887,210.623a3.3,3.3,0,1,1-3.3,3.3A3.3,3.3,0,0,1,566.887,210.623Zm0,5.062a1.766,1.766,0,1,0-1.766-1.766A1.768,1.768,0,0,0,566.887,215.685Z" transform="translate(-563.591 -210.623)" fill="#4608ad"/></g></g><g transform="translate(138 2620.683)"><g transform="translate(42.679 17.705)"><path d="M541.241,207.227l145.7.528-.006,1.529-144.789-.525-9.009,16.5H487.671v-1.529h44.559Z" transform="translate(-487.671 -207.227)" fill="#4608ad"/></g><g transform="translate(125.072 25.959)"><rect width="1.529" height="115.97" transform="matrix(-0.005, 1, -1, -0.005, 115.976, 0.527)" fill="#4608ad"/></g><g transform="translate(28.005 0)"><path d="M617.339,220.339H665.07v1.529H618.182l-8.931,14.157H556.708V234.5h51.7Z" transform="translate(-556.708 -220.339)" fill="#4608ad"/></g><g transform="translate(5.255 8.014)"><path d="M593.8,212.622h120.66v1.529h-119.8L583.737,232.1H506.375v-1.529h76.5Z" transform="translate(-506.375 -212.622)" fill="#4608ad"/></g><g transform="translate(0 23.427)"><path d="M644.861,210.968a3.3,3.3,0,1,1-3.3,3.3A3.3,3.3,0,0,1,644.861,210.968Zm0,5.062a1.766,1.766,0,1,0-1.766-1.765A1.769,1.769,0,0,0,644.861,216.03Z" transform="translate(-641.565 -210.968)" fill="#4608ad"/></g><g transform="translate(22.362 11.626)"><path d="M630.238,218.684a3.3,3.3,0,1,1-3.294,3.3A3.3,3.3,0,0,1,630.238,218.684Zm0,5.062a1.766,1.766,0,1,0-1.765-1.766A1.768,1.768,0,0,0,630.238,223.746Z" transform="translate(-626.944 -218.684)" fill="#4608ad"/></g><g transform="translate(36.851 31.679)"><path d="M620.764,205.573a3.295,3.295,0,1,1-3.3,3.3A3.3,3.3,0,0,1,620.764,205.573Zm0,5.061A1.766,1.766,0,1,0,619,208.869,1.769,1.769,0,0,0,620.764,210.634Z" transform="translate(-617.468 -205.573)" fill="#4608ad"/></g><g transform="translate(119.25 23.954)"><path d="M566.887,210.623a3.3,3.3,0,1,1-3.3,3.3A3.3,3.3,0,0,1,566.887,210.623Zm0,5.062a1.766,1.766,0,1,0-1.766-1.766A1.768,1.768,0,0,0,566.887,215.685Z" transform="translate(-563.591 -210.623)" fill="#4608ad"/></g></g><g transform="translate(92 160)"><g transform="translate(363 2516.849)"><g transform="translate(42.679 2.53)"><path d="M541.241,225.261l145.7-.528-.006-1.529-144.789.525-9.009-16.5H487.671v1.529h44.559Z" transform="translate(-487.671 -207.227)" fill="#4608ad"/></g><g transform="translate(125.072 10.254)"><rect width="1.529" height="115.97" transform="matrix(-0.005, -1, 1, -0.005, 0.007, 2.056)" fill="#4608ad"/></g><g transform="translate(28.005 22.583)"><path d="M617.339,236.025H665.07V234.5H618.182l-8.931-14.157H556.708v1.529h51.7Z" transform="translate(-556.708 -220.339)" fill="#4608ad"/></g><g transform="translate(5.255 10.781)"><path d="M593.8,232.1h120.66v-1.529h-119.8l-10.928-17.944H506.375v1.529h76.5Z" transform="translate(-506.375 -212.622)" fill="#4608ad"/></g><g transform="translate(0 8.251)"><path d="M644.861,217.56a3.3,3.3,0,1,0-3.3-3.3A3.3,3.3,0,0,0,644.861,217.56Zm0-5.062a1.766,1.766,0,1,1-1.766,1.765A1.769,1.769,0,0,1,644.861,212.5Z" transform="translate(-641.565 -210.968)" fill="#4608ad"/></g><g transform="translate(22.362 20.051)"><path d="M630.238,225.276a3.3,3.3,0,1,0-3.294-3.3A3.3,3.3,0,0,0,630.238,225.276Zm0-5.062a1.766,1.766,0,1,1-1.765,1.766A1.768,1.768,0,0,1,630.238,220.213Z" transform="translate(-626.944 -218.684)" fill="#4608ad"/></g><g transform="translate(36.851)"><path d="M620.764,212.163a3.295,3.295,0,1,0-3.3-3.3A3.3,3.3,0,0,0,620.764,212.163Zm0-5.061A1.766,1.766,0,1,1,619,208.867,1.769,1.769,0,0,1,620.764,207.1Z" transform="translate(-617.468 -205.573)" fill="#4608ad"/></g><g transform="translate(119.25 7.723)"><path d="M566.887,217.214a3.3,3.3,0,1,0-3.3-3.3A3.3,3.3,0,0,0,566.887,217.214Zm0-5.062a1.766,1.766,0,1,1-1.766,1.766A1.768,1.768,0,0,1,566.887,212.152Z" transform="translate(-563.591 -210.623)" fill="#4608ad"/></g></g><g transform="translate(334 2555.118)"><g transform="translate(42.679 2.53)"><path d="M541.241,225.261l145.7-.528-.006-1.529-144.789.525-9.009-16.5H487.671v1.529h44.559Z" transform="translate(-487.671 -207.227)" fill="#4608ad"/></g><g transform="translate(28.005 22.583)"><path d="M617.339,236.025H665.07V234.5H618.182l-8.931-14.157H556.708v1.529h51.7Z" transform="translate(-556.708 -220.339)" fill="#4608ad"/></g><g transform="translate(5.255 10.781)"><path d="M593.8,232.1h120.66v-1.529h-119.8l-10.928-17.944H506.375v1.529h76.5Z" transform="translate(-506.375 -212.622)" fill="#4608ad"/></g><g transform="translate(0 8.251)"><path d="M644.861,217.56a3.3,3.3,0,1,0-3.3-3.3A3.3,3.3,0,0,0,644.861,217.56Zm0-5.062a1.766,1.766,0,1,1-1.766,1.765A1.769,1.769,0,0,1,644.861,212.5Z" transform="translate(-641.565 -210.968)" fill="#4608ad"/></g><g transform="translate(22.362 20.051)"><path d="M630.238,225.276a3.3,3.3,0,1,0-3.294-3.3A3.3,3.3,0,0,0,630.238,225.276Zm0-5.062a1.766,1.766,0,1,1-1.765,1.766A1.768,1.768,0,0,1,630.238,220.213Z" transform="translate(-626.944 -218.684)" fill="#4608ad"/></g><g transform="translate(36.851)"><path d="M620.764,212.163a3.295,3.295,0,1,0-3.3-3.3A3.3,3.3,0,0,0,620.764,212.163Zm0-5.061A1.766,1.766,0,1,1,619,208.867,1.769,1.769,0,0,1,620.764,207.1Z" transform="translate(-617.468 -205.573)" fill="#4608ad"/></g><g transform="translate(125.072 10.254)"><rect width="1.529" height="115.97" transform="matrix(-0.005, -1, 1, -0.005, 0.007, 2.056)" fill="#4608ad"/></g><g transform="translate(119.25 7.723)"><path d="M566.887,217.214a3.3,3.3,0,1,0-3.3-3.3A3.3,3.3,0,0,0,566.887,217.214Zm0-5.062a1.766,1.766,0,1,1-1.766,1.766A1.768,1.768,0,0,1,566.887,212.152Z" transform="translate(-563.591 -210.623)" fill="#4608ad"/></g><g transform="translate(21 26.25)"><g transform="translate(125.072 10.254)"><rect width="1.529" height="115.97" transform="matrix(-0.005, -1, 1, -0.005, 0.007, 2.056)" fill="#4608ad"/></g><g transform="translate(119.25 7.723)"><path d="M566.887,217.214a3.3,3.3,0,1,0-3.3-3.3A3.3,3.3,0,0,0,566.887,217.214Zm0-5.062a1.766,1.766,0,1,1-1.766,1.766A1.768,1.768,0,0,1,566.887,212.152Z" transform="translate(-563.591 -210.623)" fill="#4608ad"/></g></g><g transform="translate(51 -10.31)"><g transform="translate(125.072 10.254)"><path d="M0,0H1.529l.111,91.424H.111Z" transform="matrix(-0.005, -1, 1, -0.005, 0.005, 2.056)" fill="#4608ad"/></g><g transform="translate(119.25 7.723)"><path d="M566.887,217.214a3.3,3.3,0,1,0-3.3-3.3A3.3,3.3,0,0,0,566.887,217.214Zm0-5.062a1.766,1.766,0,1,1-1.766,1.766A1.768,1.768,0,0,1,566.887,212.152Z" transform="translate(-563.591 -210.623)" fill="#4608ad"/></g></g></g><g transform="translate(195 2576.548)"><g transform="translate(42.679 17.705)"><path d="M541.241,207.227l145.7.528-.006,1.529-144.789-.525-9.009,16.5H487.671v-1.529h44.559Z" transform="translate(-487.671 -207.227)" fill="#4608ad"/></g><g transform="translate(125.072 25.959)"><rect width="1.529" height="115.97" transform="matrix(-0.005, 1, -1, -0.005, 115.976, 0.527)" fill="#4608ad"/></g><g transform="translate(28.005 0)"><path d="M617.339,220.339H665.07v1.529H618.182l-8.931,14.157H556.708V234.5h51.7Z" transform="translate(-556.708 -220.339)" fill="#4608ad"/></g><g transform="translate(5.255 8.014)"><path d="M593.8,212.622h120.66v1.529h-119.8L583.737,232.1H506.375v-1.529h76.5Z" transform="translate(-506.375 -212.622)" fill="#4608ad"/></g><g transform="translate(0 23.427)"><path d="M644.861,210.968a3.3,3.3,0,1,1-3.3,3.3A3.3,3.3,0,0,1,644.861,210.968Zm0,5.062a1.766,1.766,0,1,0-1.766-1.765A1.769,1.769,0,0,0,644.861,216.03Z" transform="translate(-641.565 -210.968)" fill="#4608ad"/></g><g transform="translate(22.362 11.626)"><path d="M630.238,218.684a3.3,3.3,0,1,1-3.294,3.3A3.3,3.3,0,0,1,630.238,218.684Zm0,5.062a1.766,1.766,0,1,0-1.765-1.766A1.768,1.768,0,0,0,630.238,223.746Z" transform="translate(-626.944 -218.684)" fill="#4608ad"/></g><g transform="translate(36.851 31.679)"><path d="M620.764,205.573a3.295,3.295,0,1,1-3.3,3.3A3.3,3.3,0,0,1,620.764,205.573Zm0,5.061A1.766,1.766,0,1,0,619,208.869,1.769,1.769,0,0,0,620.764,210.634Z" transform="translate(-617.468 -205.573)" fill="#4608ad"/></g><g transform="translate(119.25 23.954)"><path d="M566.887,210.623a3.3,3.3,0,1,1-3.3,3.3A3.3,3.3,0,0,1,566.887,210.623Zm0,5.062a1.766,1.766,0,1,0-1.766-1.766A1.768,1.768,0,0,0,566.887,215.685Z" transform="translate(-563.591 -210.623)" fill="#4608ad"/></g></g><g transform="translate(220 2529.548)"><g transform="translate(42.679 17.705)"><path d="M541.241,207.227l115.7.528-.006,1.529-114.789-.525-9.009,16.5H487.671v-1.529h44.559Z" transform="translate(-487.671 -207.227)" fill="#4608ad"/></g><g transform="translate(28.005 0)"><path d="M617.339,220.339H665.07v1.529H618.182l-8.931,14.157H556.708V234.5h51.7Z" transform="translate(-556.708 -220.339)" fill="#4608ad"/></g><g transform="translate(5.255 8.014)"><path d="M593.8,212.622h67.66v1.529h-66.8L583.737,232.1H506.375v-1.529h76.5Z" transform="translate(-506.375 -212.622)" fill="#4608ad"/></g><g transform="translate(0 23.427)"><path d="M644.861,210.968a3.3,3.3,0,1,1-3.3,3.3A3.3,3.3,0,0,1,644.861,210.968Zm0,5.062a1.766,1.766,0,1,0-1.766-1.765A1.769,1.769,0,0,0,644.861,216.03Z" transform="translate(-641.565 -210.968)" fill="#4608ad"/></g><g transform="translate(22.362 11.626)"><path d="M630.238,218.684a3.3,3.3,0,1,1-3.294,3.3A3.3,3.3,0,0,1,630.238,218.684Zm0,5.062a1.766,1.766,0,1,0-1.765-1.766A1.768,1.768,0,0,0,630.238,223.746Z" transform="translate(-626.944 -218.684)" fill="#4608ad"/></g><g transform="translate(36.851 31.679)"><path d="M620.764,205.573a3.295,3.295,0,1,1-3.3,3.3A3.3,3.3,0,0,1,620.764,205.573Zm0,5.061A1.766,1.766,0,1,0,619,208.869,1.769,1.769,0,0,0,620.764,210.634Z" transform="translate(-617.468 -205.573)" fill="#4608ad"/></g></g><g transform="translate(306 2646.548)"><g transform="translate(42.679 17.705)"><path d="M541.241,207.227l145.7.528-.006,1.529-144.789-.525-9.009,16.5H487.671v-1.529h44.559Z" transform="translate(-487.671 -207.227)" fill="#4608ad"/></g><g transform="translate(125.072 25.959)"><rect width="1.529" height="115.97" transform="matrix(-0.005, 1, -1, -0.005, 115.976, 0.527)" fill="#4608ad"/></g><g transform="translate(28.005 0)"><path d="M617.339,220.339H665.07v1.529H618.182l-8.931,14.157H556.708V234.5h51.7Z" transform="translate(-556.708 -220.339)" fill="#4608ad"/></g><g transform="translate(5.255 8.014)"><path d="M593.8,212.622h120.66v1.529h-119.8L583.737,232.1H506.375v-1.529h76.5Z" transform="translate(-506.375 -212.622)" fill="#4608ad"/></g><g transform="translate(0 23.427)"><path d="M644.861,210.968a3.3,3.3,0,1,1-3.3,3.3A3.3,3.3,0,0,1,644.861,210.968Zm0,5.062a1.766,1.766,0,1,0-1.766-1.765A1.769,1.769,0,0,0,644.861,216.03Z" transform="translate(-641.565 -210.968)" fill="#4608ad"/></g><g transform="translate(22.362 11.626)"><path d="M630.238,218.684a3.3,3.3,0,1,1-3.294,3.3A3.3,3.3,0,0,1,630.238,218.684Zm0,5.062a1.766,1.766,0,1,0-1.765-1.766A1.768,1.768,0,0,0,630.238,223.746Z" transform="translate(-626.944 -218.684)" fill="#4608ad"/></g><g transform="translate(36.851 31.679)"><path d="M620.764,205.573a3.295,3.295,0,1,1-3.3,3.3A3.3,3.3,0,0,1,620.764,205.573Zm0,5.061A1.766,1.766,0,1,0,619,208.869,1.769,1.769,0,0,0,620.764,210.634Z" transform="translate(-617.468 -205.573)" fill="#4608ad"/></g><g transform="translate(119.25 23.954)"><path d="M566.887,210.623a3.3,3.3,0,1,1-3.3,3.3A3.3,3.3,0,0,1,566.887,210.623Zm0,5.062a1.766,1.766,0,1,0-1.766-1.766A1.768,1.768,0,0,0,566.887,215.685Z" transform="translate(-563.591 -210.623)" fill="#4608ad"/></g></g><g transform="translate(363 2601.548)"><g transform="translate(42.679 17.705)"><path d="M541.241,207.227l145.7.528-.006,1.529-144.789-.525-9.009,16.5H487.671v-1.529h44.559Z" transform="translate(-487.671 -207.227)" fill="#4608ad"/></g><g transform="translate(125.072 25.959)"><rect width="1.529" height="115.97" transform="matrix(-0.005, 1, -1, -0.005, 115.976, 0.527)" fill="#4608ad"/></g><g transform="translate(28.005 0)"><path d="M617.339,220.339H665.07v1.529H618.182l-8.931,14.157H556.708V234.5h51.7Z" transform="translate(-556.708 -220.339)" fill="#4608ad"/></g><g transform="translate(5.255 8.014)"><path d="M593.8,212.622h120.66v1.529h-119.8L583.737,232.1H506.375v-1.529h76.5Z" transform="translate(-506.375 -212.622)" fill="#4608ad"/></g><g transform="translate(0 23.427)"><path d="M644.861,210.968a3.3,3.3,0,1,1-3.3,3.3A3.3,3.3,0,0,1,644.861,210.968Zm0,5.062a1.766,1.766,0,1,0-1.766-1.765A1.769,1.769,0,0,0,644.861,216.03Z" transform="translate(-641.565 -210.968)" fill="#4608ad"/></g><g transform="translate(22.362 11.626)"><path d="M630.238,218.684a3.3,3.3,0,1,1-3.294,3.3A3.3,3.3,0,0,1,630.238,218.684Zm0,5.062a1.766,1.766,0,1,0-1.765-1.766A1.768,1.768,0,0,0,630.238,223.746Z" transform="translate(-626.944 -218.684)" fill="#4608ad"/></g><g transform="translate(36.851 31.679)"><path d="M620.764,205.573a3.295,3.295,0,1,1-3.3,3.3A3.3,3.3,0,0,1,620.764,205.573Zm0,5.061A1.766,1.766,0,1,0,619,208.869,1.769,1.769,0,0,0,620.764,210.634Z" transform="translate(-617.468 -205.573)" fill="#4608ad"/></g><g transform="translate(119.25 23.954)"><path d="M566.887,210.623a3.3,3.3,0,1,1-3.3,3.3A3.3,3.3,0,0,1,566.887,210.623Zm0,5.062a1.766,1.766,0,1,0-1.766-1.766A1.768,1.768,0,0,0,566.887,215.685Z" transform="translate(-563.591 -210.623)" fill="#4608ad"/></g></g><g transform="translate(138 2620.683)"><g transform="translate(42.679 17.705)"><path d="M541.241,207.227l145.7.528-.006,1.529-144.789-.525-9.009,16.5H487.671v-1.529h44.559Z" transform="translate(-487.671 -207.227)" fill="#4608ad"/></g><g transform="translate(125.072 25.959)"><rect width="1.529" height="115.97" transform="matrix(-0.005, 1, -1, -0.005, 115.976, 0.527)" fill="#4608ad"/></g><g transform="translate(28.005 0)"><path d="M617.339,220.339H665.07v1.529H618.182l-8.931,14.157H556.708V234.5h51.7Z" transform="translate(-556.708 -220.339)" fill="#4608ad"/></g><g transform="translate(5.255 8.014)"><path d="M593.8,212.622h120.66v1.529h-119.8L583.737,232.1H506.375v-1.529h76.5Z" transform="translate(-506.375 -212.622)" fill="#4608ad"/></g><g transform="translate(0 23.427)"><path d="M644.861,210.968a3.3,3.3,0,1,1-3.3,3.3A3.3,3.3,0,0,1,644.861,210.968Zm0,5.062a1.766,1.766,0,1,0-1.766-1.765A1.769,1.769,0,0,0,644.861,216.03Z" transform="translate(-641.565 -210.968)" fill="#4608ad"/></g><g transform="translate(22.362 11.626)"><path d="M630.238,218.684a3.3,3.3,0,1,1-3.294,3.3A3.3,3.3,0,0,1,630.238,218.684Zm0,5.062a1.766,1.766,0,1,0-1.765-1.766A1.768,1.768,0,0,0,630.238,223.746Z" transform="translate(-626.944 -218.684)" fill="#4608ad"/></g><g transform="translate(36.851 31.679)"><path d="M620.764,205.573a3.295,3.295,0,1,1-3.3,3.3A3.3,3.3,0,0,1,620.764,205.573Zm0,5.061A1.766,1.766,0,1,0,619,208.869,1.769,1.769,0,0,0,620.764,210.634Z" transform="translate(-617.468 -205.573)" fill="#4608ad"/></g><g transform="translate(119.25 23.954)"><path d="M566.887,210.623a3.3,3.3,0,1,1-3.3,3.3A3.3,3.3,0,0,1,566.887,210.623Zm0,5.062a1.766,1.766,0,1,0-1.766-1.766A1.768,1.768,0,0,0,566.887,215.685Z" transform="translate(-563.591 -210.623)" fill="#4608ad"/></g></g></g><g transform="translate(-294 156)"><g transform="translate(363 2516.849)"><g transform="translate(42.679 2.53)"><path d="M541.241,225.261l145.7-.528-.006-1.529-144.789.525-9.009-16.5H487.671v1.529h44.559Z" transform="translate(-487.671 -207.227)" fill="#4608ad"/></g><g transform="translate(125.072 10.254)"><rect width="1.529" height="115.97" transform="matrix(-0.005, -1, 1, -0.005, 0.007, 2.056)" fill="#4608ad"/></g><g transform="translate(28.005 22.583)"><path d="M617.339,236.025H665.07V234.5H618.182l-8.931-14.157H556.708v1.529h51.7Z" transform="translate(-556.708 -220.339)" fill="#4608ad"/></g><g transform="translate(5.255 10.781)"><path d="M593.8,232.1h120.66v-1.529h-119.8l-10.928-17.944H506.375v1.529h76.5Z" transform="translate(-506.375 -212.622)" fill="#4608ad"/></g><g transform="translate(0 8.251)"><path d="M644.861,217.56a3.3,3.3,0,1,0-3.3-3.3A3.3,3.3,0,0,0,644.861,217.56Zm0-5.062a1.766,1.766,0,1,1-1.766,1.765A1.769,1.769,0,0,1,644.861,212.5Z" transform="translate(-641.565 -210.968)" fill="#4608ad"/></g><g transform="translate(22.362 20.051)"><path d="M630.238,225.276a3.3,3.3,0,1,0-3.294-3.3A3.3,3.3,0,0,0,630.238,225.276Zm0-5.062a1.766,1.766,0,1,1-1.765,1.766A1.768,1.768,0,0,1,630.238,220.213Z" transform="translate(-626.944 -218.684)" fill="#4608ad"/></g><g transform="translate(36.851)"><path d="M620.764,212.163a3.295,3.295,0,1,0-3.3-3.3A3.3,3.3,0,0,0,620.764,212.163Zm0-5.061A1.766,1.766,0,1,1,619,208.867,1.769,1.769,0,0,1,620.764,207.1Z" transform="translate(-617.468 -205.573)" fill="#4608ad"/></g><g transform="translate(119.25 7.723)"><path d="M566.887,217.214a3.3,3.3,0,1,0-3.3-3.3A3.3,3.3,0,0,0,566.887,217.214Zm0-5.062a1.766,1.766,0,1,1-1.766,1.766A1.768,1.768,0,0,1,566.887,212.152Z" transform="translate(-563.591 -210.623)" fill="#4608ad"/></g></g><g transform="translate(334 2555.118)"><g transform="translate(42.679 2.53)"><path d="M541.241,225.261l145.7-.528-.006-1.529-144.789.525-9.009-16.5H487.671v1.529h44.559Z" transform="translate(-487.671 -207.227)" fill="#4608ad"/></g><g transform="translate(28.005 22.583)"><path d="M617.339,236.025H665.07V234.5H618.182l-8.931-14.157H556.708v1.529h51.7Z" transform="translate(-556.708 -220.339)" fill="#4608ad"/></g><g transform="translate(5.255 10.781)"><path d="M593.8,232.1h120.66v-1.529h-119.8l-10.928-17.944H506.375v1.529h76.5Z" transform="translate(-506.375 -212.622)" fill="#4608ad"/></g><g transform="translate(0 8.251)"><path d="M644.861,217.56a3.3,3.3,0,1,0-3.3-3.3A3.3,3.3,0,0,0,644.861,217.56Zm0-5.062a1.766,1.766,0,1,1-1.766,1.765A1.769,1.769,0,0,1,644.861,212.5Z" transform="translate(-641.565 -210.968)" fill="#4608ad"/></g><g transform="translate(22.362 20.051)"><path d="M630.238,225.276a3.3,3.3,0,1,0-3.294-3.3A3.3,3.3,0,0,0,630.238,225.276Zm0-5.062a1.766,1.766,0,1,1-1.765,1.766A1.768,1.768,0,0,1,630.238,220.213Z" transform="translate(-626.944 -218.684)" fill="#4608ad"/></g><g transform="translate(36.851)"><path d="M620.764,212.163a3.295,3.295,0,1,0-3.3-3.3A3.3,3.3,0,0,0,620.764,212.163Zm0-5.061A1.766,1.766,0,1,1,619,208.867,1.769,1.769,0,0,1,620.764,207.1Z" transform="translate(-617.468 -205.573)" fill="#4608ad"/></g><g transform="translate(125.072 10.254)"><rect width="1.529" height="115.97" transform="matrix(-0.005, -1, 1, -0.005, 0.007, 2.056)" fill="#4608ad"/></g><g transform="translate(119.25 7.723)"><path d="M566.887,217.214a3.3,3.3,0,1,0-3.3-3.3A3.3,3.3,0,0,0,566.887,217.214Zm0-5.062a1.766,1.766,0,1,1-1.766,1.766A1.768,1.768,0,0,1,566.887,212.152Z" transform="translate(-563.591 -210.623)" fill="#4608ad"/></g><g transform="translate(21 26.25)"><g transform="translate(125.072 10.254)"><rect width="1.529" height="115.97" transform="matrix(-0.005, -1, 1, -0.005, 0.007, 2.056)" fill="#4608ad"/></g><g transform="translate(119.25 7.723)"><path d="M566.887,217.214a3.3,3.3,0,1,0-3.3-3.3A3.3,3.3,0,0,0,566.887,217.214Zm0-5.062a1.766,1.766,0,1,1-1.766,1.766A1.768,1.768,0,0,1,566.887,212.152Z" transform="translate(-563.591 -210.623)" fill="#4608ad"/></g></g><g transform="translate(51 -10.31)"><g transform="translate(125.072 10.254)"><path d="M0,0H1.529l.111,91.424H.111Z" transform="matrix(-0.005, -1, 1, -0.005, 0.005, 2.056)" fill="#4608ad"/></g><g transform="translate(119.25 7.723)"><path d="M566.887,217.214a3.3,3.3,0,1,0-3.3-3.3A3.3,3.3,0,0,0,566.887,217.214Zm0-5.062a1.766,1.766,0,1,1-1.766,1.766A1.768,1.768,0,0,1,566.887,212.152Z" transform="translate(-563.591 -210.623)" fill="#4608ad"/></g></g></g><g transform="translate(195 2576.548)"><g transform="translate(42.679 17.705)"><path d="M541.241,207.227l145.7.528-.006,1.529-144.789-.525-9.009,16.5H487.671v-1.529h44.559Z" transform="translate(-487.671 -207.227)" fill="#4608ad"/></g><g transform="translate(125.072 25.959)"><rect width="1.529" height="115.97" transform="matrix(-0.005, 1, -1, -0.005, 115.976, 0.527)" fill="#4608ad"/></g><g transform="translate(28.005 0)"><path d="M617.339,220.339H665.07v1.529H618.182l-8.931,14.157H556.708V234.5h51.7Z" transform="translate(-556.708 -220.339)" fill="#4608ad"/></g><g transform="translate(5.255 8.014)"><path d="M593.8,212.622h120.66v1.529h-119.8L583.737,232.1H506.375v-1.529h76.5Z" transform="translate(-506.375 -212.622)" fill="#4608ad"/></g><g transform="translate(0 23.427)"><path d="M644.861,210.968a3.3,3.3,0,1,1-3.3,3.3A3.3,3.3,0,0,1,644.861,210.968Zm0,5.062a1.766,1.766,0,1,0-1.766-1.765A1.769,1.769,0,0,0,644.861,216.03Z" transform="translate(-641.565 -210.968)" fill="#4608ad"/></g><g transform="translate(22.362 11.626)"><path d="M630.238,218.684a3.3,3.3,0,1,1-3.294,3.3A3.3,3.3,0,0,1,630.238,218.684Zm0,5.062a1.766,1.766,0,1,0-1.765-1.766A1.768,1.768,0,0,0,630.238,223.746Z" transform="translate(-626.944 -218.684)" fill="#4608ad"/></g><g transform="translate(36.851 31.679)"><path d="M620.764,205.573a3.295,3.295,0,1,1-3.3,3.3A3.3,3.3,0,0,1,620.764,205.573Zm0,5.061A1.766,1.766,0,1,0,619,208.869,1.769,1.769,0,0,0,620.764,210.634Z" transform="translate(-617.468 -205.573)" fill="#4608ad"/></g><g transform="translate(119.25 23.954)"><path d="M566.887,210.623a3.3,3.3,0,1,1-3.3,3.3A3.3,3.3,0,0,1,566.887,210.623Zm0,5.062a1.766,1.766,0,1,0-1.766-1.766A1.768,1.768,0,0,0,566.887,215.685Z" transform="translate(-563.591 -210.623)" fill="#4608ad"/></g></g><g transform="translate(220 2529.548)"><g transform="translate(42.679 17.705)"><path d="M541.241,207.227l115.7.528-.006,1.529-114.789-.525-9.009,16.5H487.671v-1.529h44.559Z" transform="translate(-487.671 -207.227)" fill="#4608ad"/></g><g transform="translate(28.005 0)"><path d="M617.339,220.339H665.07v1.529H618.182l-8.931,14.157H556.708V234.5h51.7Z" transform="translate(-556.708 -220.339)" fill="#4608ad"/></g><g transform="translate(5.255 8.014)"><path d="M593.8,212.622h67.66v1.529h-66.8L583.737,232.1H506.375v-1.529h76.5Z" transform="translate(-506.375 -212.622)" fill="#4608ad"/></g><g transform="translate(0 23.427)"><path d="M644.861,210.968a3.3,3.3,0,1,1-3.3,3.3A3.3,3.3,0,0,1,644.861,210.968Zm0,5.062a1.766,1.766,0,1,0-1.766-1.765A1.769,1.769,0,0,0,644.861,216.03Z" transform="translate(-641.565 -210.968)" fill="#4608ad"/></g><g transform="translate(22.362 11.626)"><path d="M630.238,218.684a3.3,3.3,0,1,1-3.294,3.3A3.3,3.3,0,0,1,630.238,218.684Zm0,5.062a1.766,1.766,0,1,0-1.765-1.766A1.768,1.768,0,0,0,630.238,223.746Z" transform="translate(-626.944 -218.684)" fill="#4608ad"/></g><g transform="translate(36.851 31.679)"><path d="M620.764,205.573a3.295,3.295,0,1,1-3.3,3.3A3.3,3.3,0,0,1,620.764,205.573Zm0,5.061A1.766,1.766,0,1,0,619,208.869,1.769,1.769,0,0,0,620.764,210.634Z" transform="translate(-617.468 -205.573)" fill="#4608ad"/></g></g><g transform="translate(306 2646.548)"><g transform="translate(42.679 17.705)"><path d="M541.241,207.227l145.7.528-.006,1.529-144.789-.525-9.009,16.5H487.671v-1.529h44.559Z" transform="translate(-487.671 -207.227)" fill="#4608ad"/></g><g transform="translate(125.072 25.959)"><rect width="1.529" height="115.97" transform="matrix(-0.005, 1, -1, -0.005, 115.976, 0.527)" fill="#4608ad"/></g><g transform="translate(28.005 0)"><path d="M617.339,220.339H665.07v1.529H618.182l-8.931,14.157H556.708V234.5h51.7Z" transform="translate(-556.708 -220.339)" fill="#4608ad"/></g><g transform="translate(5.255 8.014)"><path d="M593.8,212.622h120.66v1.529h-119.8L583.737,232.1H506.375v-1.529h76.5Z" transform="translate(-506.375 -212.622)" fill="#4608ad"/></g><g transform="translate(0 23.427)"><path d="M644.861,210.968a3.3,3.3,0,1,1-3.3,3.3A3.3,3.3,0,0,1,644.861,210.968Zm0,5.062a1.766,1.766,0,1,0-1.766-1.765A1.769,1.769,0,0,0,644.861,216.03Z" transform="translate(-641.565 -210.968)" fill="#4608ad"/></g><g transform="translate(22.362 11.626)"><path d="M630.238,218.684a3.3,3.3,0,1,1-3.294,3.3A3.3,3.3,0,0,1,630.238,218.684Zm0,5.062a1.766,1.766,0,1,0-1.765-1.766A1.768,1.768,0,0,0,630.238,223.746Z" transform="translate(-626.944 -218.684)" fill="#4608ad"/></g><g transform="translate(36.851 31.679)"><path d="M620.764,205.573a3.295,3.295,0,1,1-3.3,3.3A3.3,3.3,0,0,1,620.764,205.573Zm0,5.061A1.766,1.766,0,1,0,619,208.869,1.769,1.769,0,0,0,620.764,210.634Z" transform="translate(-617.468 -205.573)" fill="#4608ad"/></g><g transform="translate(119.25 23.954)"><path d="M566.887,210.623a3.3,3.3,0,1,1-3.3,3.3A3.3,3.3,0,0,1,566.887,210.623Zm0,5.062a1.766,1.766,0,1,0-1.766-1.766A1.768,1.768,0,0,0,566.887,215.685Z" transform="translate(-563.591 -210.623)" fill="#4608ad"/></g></g><g transform="translate(363 2601.548)"><g transform="translate(42.679 17.705)"><path d="M541.241,207.227l145.7.528-.006,1.529-144.789-.525-9.009,16.5H487.671v-1.529h44.559Z" transform="translate(-487.671 -207.227)" fill="#4608ad"/></g><g transform="translate(125.072 25.959)"><rect width="1.529" height="115.97" transform="matrix(-0.005, 1, -1, -0.005, 115.976, 0.527)" fill="#4608ad"/></g><g transform="translate(28.005 0)"><path d="M617.339,220.339H665.07v1.529H618.182l-8.931,14.157H556.708V234.5h51.7Z" transform="translate(-556.708 -220.339)" fill="#4608ad"/></g><g transform="translate(5.255 8.014)"><path d="M593.8,212.622h120.66v1.529h-119.8L583.737,232.1H506.375v-1.529h76.5Z" transform="translate(-506.375 -212.622)" fill="#4608ad"/></g><g transform="translate(0 23.427)"><path d="M644.861,210.968a3.3,3.3,0,1,1-3.3,3.3A3.3,3.3,0,0,1,644.861,210.968Zm0,5.062a1.766,1.766,0,1,0-1.766-1.765A1.769,1.769,0,0,0,644.861,216.03Z" transform="translate(-641.565 -210.968)" fill="#4608ad"/></g><g transform="translate(22.362 11.626)"><path d="M630.238,218.684a3.3,3.3,0,1,1-3.294,3.3A3.3,3.3,0,0,1,630.238,218.684Zm0,5.062a1.766,1.766,0,1,0-1.765-1.766A1.768,1.768,0,0,0,630.238,223.746Z" transform="translate(-626.944 -218.684)" fill="#4608ad"/></g><g transform="translate(36.851 31.679)"><path d="M620.764,205.573a3.295,3.295,0,1,1-3.3,3.3A3.3,3.3,0,0,1,620.764,205.573Zm0,5.061A1.766,1.766,0,1,0,619,208.869,1.769,1.769,0,0,0,620.764,210.634Z" transform="translate(-617.468 -205.573)" fill="#4608ad"/></g><g transform="translate(119.25 23.954)"><path d="M566.887,210.623a3.3,3.3,0,1,1-3.3,3.3A3.3,3.3,0,0,1,566.887,210.623Zm0,5.062a1.766,1.766,0,1,0-1.766-1.766A1.768,1.768,0,0,0,566.887,215.685Z" transform="translate(-563.591 -210.623)" fill="#4608ad"/></g></g><g transform="translate(138 2620.683)"><g transform="translate(42.679 17.705)"><path d="M541.241,207.227l145.7.528-.006,1.529-144.789-.525-9.009,16.5H487.671v-1.529h44.559Z" transform="translate(-487.671 -207.227)" fill="#4608ad"/></g><g transform="translate(125.072 25.959)"><rect width="1.529" height="115.97" transform="matrix(-0.005, 1, -1, -0.005, 115.976, 0.527)" fill="#4608ad"/></g><g transform="translate(28.005 0)"><path d="M617.339,220.339H665.07v1.529H618.182l-8.931,14.157H556.708V234.5h51.7Z" transform="translate(-556.708 -220.339)" fill="#4608ad"/></g><g transform="translate(5.255 8.014)"><path d="M593.8,212.622h120.66v1.529h-119.8L583.737,232.1H506.375v-1.529h76.5Z" transform="translate(-506.375 -212.622)" fill="#4608ad"/></g><g transform="translate(0 23.427)"><path d="M644.861,210.968a3.3,3.3,0,1,1-3.3,3.3A3.3,3.3,0,0,1,644.861,210.968Zm0,5.062a1.766,1.766,0,1,0-1.766-1.765A1.769,1.769,0,0,0,644.861,216.03Z" transform="translate(-641.565 -210.968)" fill="#4608ad"/></g><g transform="translate(22.362 11.626)"><path d="M630.238,218.684a3.3,3.3,0,1,1-3.294,3.3A3.3,3.3,0,0,1,630.238,218.684Zm0,5.062a1.766,1.766,0,1,0-1.765-1.766A1.768,1.768,0,0,0,630.238,223.746Z" transform="translate(-626.944 -218.684)" fill="#4608ad"/></g><g transform="translate(36.851 31.679)"><path d="M620.764,205.573a3.295,3.295,0,1,1-3.3,3.3A3.3,3.3,0,0,1,620.764,205.573Zm0,5.061A1.766,1.766,0,1,0,619,208.869,1.769,1.769,0,0,0,620.764,210.634Z" transform="translate(-617.468 -205.573)" fill="#4608ad"/></g><g transform="translate(119.25 23.954)"><path d="M566.887,210.623a3.3,3.3,0,1,1-3.3,3.3A3.3,3.3,0,0,1,566.887,210.623Zm0,5.062a1.766,1.766,0,1,0-1.766-1.766A1.768,1.768,0,0,0,566.887,215.685Z" transform="translate(-563.591 -210.623)" fill="#4608ad"/></g></g></g></g></g></svg>