<svg id="mail-icon" xmlns="http://www.w3.org/2000/svg" width="13.553" height="10.067" viewBox="0 0 13.553 10.067">
  <path id="Path_27444" data-name="Path 27444" d="M28.682,24H17.239a1.053,1.053,0,0,0-.771.339l6.224,4.283a.687.687,0,0,0,.771,0l6.1-4.147A1.047,1.047,0,0,0,28.681,24Z" transform="translate(-16.184 -24)" fill="#101040"/>
  <path id="Path_27445" data-name="Path 27445" d="M21.9,37.29a1.992,1.992,0,0,1-1.131-.354L15,32.969v7.275A1.056,1.056,0,0,0,16.055,41.3H27.5a1.056,1.056,0,0,0,1.055-1.055V33.178L23.02,36.942a1.987,1.987,0,0,1-1.123.349Z" transform="translate(-15 -31.232)" fill="#101040"/>
</svg>
