<svg xmlns="http://www.w3.org/2000/svg" width="34.135" height="59.667" viewBox="0 0 34.135 59.667">
  <g id="my-request-icon" transform="translate(-4.077 -0.794)">
    <g id="Group_16282" data-name="Group 16282" transform="translate(4.077 0.794)">
      <path id="Path_28799" data-name="Path 28799" d="M8.527.794a4.45,4.45,0,0,0-4.45,4.42V22.019a4.443,4.443,0,0,0,4.45,4.412h7.965l1.983,2.741a3.352,3.352,0,0,0,2.664,1.475,3.37,3.37,0,0,0,2.674-1.475l1.981-2.741h7.967a4.443,4.443,0,0,0,4.45-4.412V5.214a4.45,4.45,0,0,0-4.45-4.42ZM21.712,5.572h.1a5.211,5.211,0,0,1,0,10.418c-.067,0-.134,0-.2-.006-.01,0-.05.022-.05.151V17.41a1.029,1.029,0,1,1-2.057,0V16.134a2.184,2.184,0,0,1,2-2.206h0c.036,0,.072,0,.108,0h.036l.036,0c.042,0,.083.006.125.006a3.071,3.071,0,0,0,3.014-3.153A3.07,3.07,0,0,0,21.809,7.63a3,3,0,0,0-2.787,1.951,1.029,1.029,0,1,1-1.915-.752,5.085,5.085,0,0,1,4.605-3.257Zm-1.22,13.866h.036a1.32,1.32,0,1,1-.036,0Zm.647,13.046a7.4,7.4,0,0,0-4.252,13.508,11.5,11.5,0,0,0-7.352,10.7v2.749a1.029,1.029,0,0,0,1.033,1.025H31.718a1.029,1.029,0,0,0,1.025-1.025V56.687a11.494,11.494,0,0,0-7.348-10.7A7.4,7.4,0,0,0,21.14,32.484Z" transform="translate(-4.077 -0.794)" fill="#fff" fill-rule="evenodd"/>
    </g>
  </g>
</svg>
