<svg xmlns="http://www.w3.org/2000/svg" width="52.129" height="55.412" viewBox="0 0 52.129 55.412">
  <path id="polist-icon" d="M15.032,65.1H61.279a1.144,1.144,0,0,0,0-2.287H15.032a1.136,1.136,0,0,0-.808.333v.005a1.144,1.144,0,0,0,0,1.616l.005.005a1.148,1.148,0,0,0,.805.328Zm36.936-9.566h-9.7a2.832,2.832,0,0,1-2.824-2.824V46.537a2.8,2.8,0,0,1,.83-1.989v-.005a2.817,2.817,0,0,1,1.995-.83h9.7a2.813,2.813,0,0,1,1.992.83l0,0a2.817,2.817,0,0,1,.83,1.995v6.172a2.805,2.805,0,0,1-.83,1.995h-.005a2.787,2.787,0,0,1-1.987.832Zm.7-6.967V46.539a.714.714,0,0,0-.207-.5v-.005a.7.7,0,0,0-.5-.2l-9.7,0a.709.709,0,0,0-.5.207l0,0a.711.711,0,0,0-.207.5v2.027Zm-10.4,4.849h9.7a.7.7,0,0,0,.5-.207l0,0a.7.7,0,0,0,.207-.5V50.682l-11.1,0v2.027a.706.706,0,0,0,.7.7Zm-8.4,7.278V53.007a5.113,5.113,0,0,0-10.226,0v7.687ZM63.018,19.507,57.955,13.37H51.817l3.391,6.137Zm1.184,7.8V21.626H55.514l-.072,7.421h0v.6a3.308,3.308,0,0,0,1.224,2.5,5.009,5.009,0,0,0,6.266.032A3.33,3.33,0,0,0,64.2,29.726v-.081h0Zm-43.132-7.8L24.46,13.37H18.323L13.26,19.507Zm-8.994,2.118v8.019h0v.081a3.349,3.349,0,0,0,1.264,2.446,5.009,5.009,0,0,0,6.266-.032,3.312,3.312,0,0,0,1.224-2.5v-.6h0l-.072-7.421Zm10.8,0,.072,7.412v.008h.005v.532a3.362,3.362,0,0,0,1.262,2.384,5.009,5.009,0,0,0,6.266-.032,3.312,3.312,0,0,0,1.224-2.5l0-.6c0-2.236-.024-4.011-.046-5.786l-.019-1.426-8.768,0Zm4-8.253h6.081L31.73,19.51l-8.245,0Zm17.759,8.253-.019,1.415c-.024,1.777-.046,3.555-.046,5.8v.6a3.313,3.313,0,0,0,1.224,2.5,5.009,5.009,0,0,0,6.266.032,3.352,3.352,0,0,0,1.262-2.384v-.532h.005v-.008l.072-7.412ZM43.32,13.373H49.4l3.391,6.137-8.242,0Zm-9.568,8.253.019,1.4c.027,2.091.054,4.183.054,5.81v.6c0,.123-.005.25-.013.37a3.37,3.37,0,0,0,1.254,2.376,4.782,4.782,0,0,0,3.09,1.077,4.725,4.725,0,0,0,3.069-1.074A3.382,3.382,0,0,0,42.467,29.8c-.008-.123-.013-.247-.013-.373v-.593c0-1.63.027-3.726.054-5.82l.016-1.391Zm1.364-8.253L33.889,19.51l4.25,0h4.25L41.162,13.37h-3ZM58.8,35.3a6.849,6.849,0,0,1-3.5-1.557,6.065,6.065,0,0,1-.988-1.082,5.957,5.957,0,0,1-.886.918,7.108,7.108,0,0,1-9-.048,6.1,6.1,0,0,1-.816-.851,5.855,5.855,0,0,1-1.018,1.111,7.041,7.041,0,0,1-8.889,0,5.922,5.922,0,0,1-1.026-1.114,5.887,5.887,0,0,1-.822.856,7.108,7.108,0,0,1-9,.048,5.962,5.962,0,0,1-.886-.918,6.062,6.062,0,0,1-.988,1.082A6.857,6.857,0,0,1,17.515,35.3V60.693h4.008V53.006a7.23,7.23,0,0,1,14.46,0v7.687H58.8Zm-8.83-24.049h7.423V10.47a.782.782,0,0,0-.231-.553l-.035-.038a.774.774,0,0,0-.515-.193H19.671a.788.788,0,0,0-.784.784v.784Z" transform="translate(-12.073 -9.686)" fill="#fff" fill-rule="evenodd"/>
</svg>
