<svg xmlns="http://www.w3.org/2000/svg" width="66.73" height="51.566" viewBox="0 0 66.73 51.566">
  <g id="Group_16281" data-name="Group 16281" transform="translate(-69.635 -602.146)">
    <path id="Path_28773" data-name="Path 28773" d="M43.093,35.72a1.422,1.422,0,1,0,2.843,0V32.4h6.635v17.06H36.46V32.4h6.635ZM33.616,32.4H26.981V35.72a1.422,1.422,0,1,1-2.843,0V32.4H17.5v17.06H33.615Zm9.478-19.9H36.459v3.317a1.422,1.422,0,1,1-2.843,0V12.5H26.981V29.56H43.092Z" transform="translate(83.794 589.646)" fill="#fff"/>
    <g id="noun-search-4648873_1_" data-name="noun-search-4648873 (1)" transform="translate(69.635 620.627)">
      <path id="Path_28790" data-name="Path 28790" d="M34.065,20a14.06,14.06,0,1,0,8.271,25.436l7,7a2.207,2.207,0,1,0,3.121-3.121l-7-7A14.049,14.049,0,0,0,34.065,20Zm0,23.71a9.649,9.649,0,1,1,9.649-9.649A9.649,9.649,0,0,1,34.065,43.71Z" transform="translate(-20.01 -20)" fill="#fff"/>
    </g>
  </g>
</svg>
