<svg id="Layer_1" data-name="Layer 1" xmlns="http://www.w3.org/2000/svg" viewBox="0 0 443.91 71.51"><defs><style>.cls-1{isolation:isolate;}.cls-2{fill:#4d3896;}</style></defs><title>stimul8</title><g class="cls-1"><path class="cls-2" d="M10.73,68.8a19.25,19.25,0,0,1-7.65-5.95A15.1,15.1,0,0,1,0,54.54H12.6a6.87,6.87,0,0,0,2.82,4.74,9.8,9.8,0,0,0,6.12,1.88,9.53,9.53,0,0,0,5.59-1.43,4.35,4.35,0,0,0,2-3.67,3.86,3.86,0,0,0-2.46-3.62,47.09,47.09,0,0,0-7.82-2.64A64.85,64.85,0,0,1,9.79,47a15.65,15.65,0,0,1-6.08-4.38A11.73,11.73,0,0,1,1.16,34.7a12.83,12.83,0,0,1,2.37-7.51,15.93,15.93,0,0,1,6.79-5.37,25.53,25.53,0,0,1,10.42-2q8.85,0,14.12,4.42a16.36,16.36,0,0,1,5.81,11.94h-12a6.47,6.47,0,0,0-2.45-4.7,9.17,9.17,0,0,0-5.86-1.74A9.27,9.27,0,0,0,15.15,31a4,4,0,0,0-1.83,3.49,4.1,4.1,0,0,0,2.5,3.8A38.94,38.94,0,0,0,23.6,41a68,68,0,0,1,8.85,2.77,15.71,15.71,0,0,1,6,4.43,12.15,12.15,0,0,1,2.64,7.91,13.13,13.13,0,0,1-2.37,7.69A15.62,15.62,0,0,1,32,69.07,25.77,25.77,0,0,1,21.63,71,26.1,26.1,0,0,1,10.73,68.8Z"/><path class="cls-2" d="M66,30.94v24a4.72,4.72,0,0,0,1.21,3.62,5.94,5.94,0,0,0,4.06,1.12h5.81V70.18H69.19q-15.82,0-15.82-15.37V30.94h-5.9V20.66h5.9V8.41H66V20.66H77.05V30.94Z"/><path class="cls-2" d="M86.93,12.66a6.94,6.94,0,0,1-2.19-5.23A7,7,0,0,1,86.93,2.2a8.25,8.25,0,0,1,11,0,7,7,0,0,1,2.19,5.23,6.94,6.94,0,0,1-2.19,5.23,8.25,8.25,0,0,1-11,0Zm11.67,8V70.18H86.08V20.66Z"/><path class="cls-2" d="M187.14,25.53q5.58,5.59,5.59,15.6V70.18H180.21V42.83c0-3.87-1-6.84-3-8.89a10.6,10.6,0,0,0-8-3.09,10.73,10.73,0,0,0-8.09,3.09c-2,2.05-3,5-3,8.89V70.18H145.62V42.83c0-3.87-1-6.84-3-8.89a10.61,10.61,0,0,0-8-3.09,10.86,10.86,0,0,0-8.18,3.09c-2,2.05-3,5-3,8.89V70.18H110.93V20.66h12.52v6a16.72,16.72,0,0,1,6.21-4.92A19.4,19.4,0,0,1,138,20a21.61,21.61,0,0,1,10.37,2.45,17.24,17.24,0,0,1,7.06,7,17.94,17.94,0,0,1,7-6.88,20,20,0,0,1,10-2.59Q181.55,20,187.14,25.53Z"/><path class="cls-2" d="M251.37,20.66V70.18H238.76V63.93a16.57,16.57,0,0,1-6.3,5.05A19.59,19.59,0,0,1,224,70.81a21,21,0,0,1-10.28-2.46,17.34,17.34,0,0,1-7-7.24,24,24,0,0,1-2.54-11.4v-29h12.51V47.93q0,5.9,2.95,9.07a10.48,10.48,0,0,0,8.05,3.17A10.58,10.58,0,0,0,235.81,57q3-3.18,2.95-9.07V20.66Z"/><path class="cls-2" d="M276.21,4V70.18H263.7V4Z"/><path class="cls-2" d="M289.09,21.29a16.5,16.5,0,0,1,2.45-8.81A17.11,17.11,0,0,1,299,6.14a32.15,32.15,0,0,1,24.23,0,17.05,17.05,0,0,1,7.42,6.34,16.42,16.42,0,0,1,2.46,8.81,15.45,15.45,0,0,1-2.42,8.62,16.44,16.44,0,0,1-6.43,5.77,17.49,17.49,0,0,1,7.69,6.26,17.07,17.07,0,0,1,2.77,9.74,18.29,18.29,0,0,1-3.09,10.59,19.8,19.8,0,0,1-8.44,6.93,31.33,31.33,0,0,1-24.1,0,19.92,19.92,0,0,1-8.4-6.93,18.36,18.36,0,0,1-3.08-10.59,17.22,17.22,0,0,1,2.77-9.79A16.75,16.75,0,0,1,298,35.68Q289.09,31,289.09,21.29Zm13.72,22.43a9,9,0,0,0-3.17,7.42,9.41,9.41,0,0,0,3.08,7.29c2.06,1.88,4.84,2.81,8.36,2.81s6.28-1,8.31-2.86a9.49,9.49,0,0,0,3-7.24,9.11,9.11,0,0,0-3.13-7.37,12.33,12.33,0,0,0-8.22-2.64A12.69,12.69,0,0,0,302.81,43.72Zm15.46-27.44a10.23,10.23,0,0,0-7.19-2.41A10.13,10.13,0,0,0,304,16.28a8.86,8.86,0,0,0-2.64,6.88,8.16,8.16,0,0,0,2.73,6.44,11.41,11.41,0,0,0,14.08,0,8.24,8.24,0,0,0,2.77-6.49A8.75,8.75,0,0,0,318.27,16.28Z"/><path class="cls-2" d="M346,68.71a7.34,7.34,0,0,1,0-10.46,7.74,7.74,0,0,1,5.59-2.1,7.47,7.47,0,0,1,5.45,2.1,7.44,7.44,0,0,1,0,10.46,7.47,7.47,0,0,1-5.45,2.1A7.74,7.74,0,0,1,346,68.71Z"/><path class="cls-2" d="M369.05,31.92a21.46,21.46,0,0,1,19.62-12.06,20.22,20.22,0,0,1,9.7,2.23A19.75,19.75,0,0,1,405,27.72V20.66h12.6V70.18H405V62.94a18.59,18.59,0,0,1-6.66,5.77A20.39,20.39,0,0,1,388.58,71a21,21,0,0,1-11.4-3.22,22.42,22.42,0,0,1-8.13-9.07,29.13,29.13,0,0,1-3-13.46A28.66,28.66,0,0,1,369.05,31.92Zm34.19,5.68a12.64,12.64,0,0,0-4.83-5,12.73,12.73,0,0,0-17.74,4.91,15.48,15.48,0,0,0-1.84,7.73,16,16,0,0,0,1.84,7.83,13.3,13.3,0,0,0,4.82,5.14,12.3,12.3,0,0,0,6.4,1.78,12.92,12.92,0,0,0,6.52-1.74,12.61,12.61,0,0,0,4.83-5A16.05,16.05,0,0,0,405,45.42,16.08,16.08,0,0,0,403.24,37.6Z"/><path class="cls-2" d="M430.73,12.66a6.91,6.91,0,0,1-2.19-5.23,6.92,6.92,0,0,1,2.19-5.23,8.24,8.24,0,0,1,11,0,7,7,0,0,1,2.19,5.23,6.94,6.94,0,0,1-2.19,5.23,8.24,8.24,0,0,1-11,0Zm11.66,8V70.18H429.88V20.66Z"/></g></svg>