<svg xmlns="http://www.w3.org/2000/svg" width="59.475" height="60.74" viewBox="0 0 59.475 60.74">
  <path id="stock-icon" d="M53.774,43.5a1.9,1.9,0,0,0,3.8,0V39.073h8.858V61.851H44.917V39.073h8.858ZM41.12,39.073H32.262V43.5a1.9,1.9,0,0,1-3.8,0V39.073H19.607V61.851H41.119ZM53.774,12.5H44.916v4.429a1.9,1.9,0,1,1-3.8,0V12.5H32.261V35.278H53.773ZM72.756,65.647H13.281v2.531h2.531v3.163a1.9,1.9,0,1,0,3.8,0V68.178H41.12v3.163a1.9,1.9,0,1,0,3.8,0V68.178H66.428v3.163a1.9,1.9,0,0,0,3.8,0V68.178h2.531Z" transform="translate(-13.281 -12.5)" fill="#fff"/>
</svg>
